Coordinates
version=1
nRows=74
nColumns=19
inDegrees=yes

Units are S.I. units (second, meters, Newtons, ...)
Angles are in degrees.

endheader
time	1_Force_X	1_Force_Y	1_Force_Z	1_Moment_X	1_Moment_Y	1_Moment_Z	1_COP_X	1_COP_Y	1_COP_Z	2_Force_X	2_Force_Y	2_Force_Z	2_Moment_X	2_Moment_Y	2_Moment_Z	2_COP_X	2_COP_Y	2_COP_Z
1.1175	13.412	445.293	-43.710	-0.298	0.000	0.401	8.035	483.104	-86.269	-0.361	0.000	0.023	0.00000	1.97515	0.00000	0.00000	3.47211	0.00000
1.1200	12.979	405.087	-40.369	-0.300	0.000	0.400	5.056	450.315	-81.382	-0.360	0.000	0.025	0.00000	1.32354	0.00000	0.00000	3.22944	0.00000
1.1225	14.682	360.548	-33.980	-0.302	0.000	0.397	0.855	414.087	-76.988	-0.358	0.000	0.026	0.00000	1.30695	0.00000	0.00000	2.90757	0.00000
1.1250	16.420	316.382	-26.922	-0.304	0.000	0.396	-2.535	377.540	-69.353	-0.357	0.000	0.027	0.00000	1.89425	0.00000	0.00000	2.82230	0.00000
1.1275	19.415	267.314	-19.567	-0.306	0.000	0.393	-7.226	337.201	-63.475	-0.354	0.000	0.029	0.00000	2.07237	0.00000	0.00000	2.59956	0.00000
1.1300	17.869	222.297	-16.201	-0.308	0.000	0.390	-9.718	293.091	-54.666	-0.351	0.000	0.031	0.00000	2.22193	0.00000	0.00000	2.29978	0.00000
1.1325	15.467	183.032	-10.941	-0.309	0.000	0.386	-11.737	242.830	-43.844	-0.346	0.000	0.035	0.00000	1.94853	0.00000	0.00000	2.80731	0.00000
1.1350	19.928	144.899	7.237	-0.315	0.000	0.377	-11.628	194.605	-32.571	-0.340	0.000	0.041	0.00000	1.18919	0.00000	0.00000	2.85595	0.00000
1.1375	21.406	109.572	14.401	-0.323	0.000	0.377	-10.441	156.894	-17.951	-0.332	0.000	0.050	0.00000	1.07002	0.00000	0.00000	3.41821	0.00000
1.1400	12.013	82.728	13.776	-0.322	0.000	0.383	-11.304	124.983	-9.667	-0.321	0.000	0.065	0.00000	0.65558	0.00000	0.00000	3.78795	0.00000
1.1425	12.810	58.519	16.912	-0.331	0.000	0.383	-12.381	95.974	-2.306	-0.310	0.000	0.082	0.00000	-0.00753	0.00000	0.00000	3.99742	0.00000
1.1450	16.862	35.304	22.977	-0.362	0.000	0.371	-11.489	71.132	6.606	-0.296	0.000	0.104	0.00000	-1.46408	0.00000	0.00000	5.86672	0.00000
1.1475	12.904	17.062	13.438	-0.436	0.000	0.411	-15.373	41.949	10.586	-0.272	0.000	0.139	0.00000	-1.93431	0.00000	0.00000	8.38937	0.00000
1.1500	5.660	0.249	1.496	-0.113	0.000	0.266	-13.247	18.517	8.313	-0.245	0.000	0.197	0.00000	-45.79566	0.00000	0.00000	12.41399	0.00000
1.1525	6.007	-4.452	4.628	-0.197	0.000	0.350	-4.048	-0.530	-2.062	-0.207	0.000	0.270	0.00000	2.96256	0.00000	0.00000	-40.76144	0.00000
1.1550	8.895	-2.751	3.018	-0.168	0.000	0.293	1.606	-6.852	1.275	-0.185	0.000	0.282	0.00000	7.61829	0.00000	0.00000	4.71062	0.00000
1.1575	7.959	-1.167	1.882	-0.134	0.000	0.336	-0.966	-1.896	0.092	-0.202	0.000	0.272	0.00000	11.48608	0.00000	0.00000	-1.67760	0.00000
1.1600	6.629	0.088	2.077	-0.082	0.000	0.383	-6.001	4.478	-1.846	-0.221	0.000	0.248	0.00000	-107.32138	0.00000	0.00000	12.60111	0.00000
1.1625	7.880	4.278	1.198	0.382	0.000	0.373	-5.466	7.378	-3.899	-0.225	0.000	0.236	0.00000	-0.88894	0.00000	0.00000	6.13735	0.00000
1.1650	9.512	3.898	0.211	0.247	0.000	0.369	-2.058	2.912	-4.551	-0.213	0.000	0.240	0.00000	-1.15659	0.00000	0.00000	-1.06448	0.00000
1.1675	7.411	0.758	-0.713	-0.062	0.000	0.439	-2.861	1.365	-2.851	-0.208	0.000	0.249	0.00000	-4.07080	0.00000	0.00000	6.39644	0.00000
1.1700	6.005	-0.122	-0.847	-0.094	0.000	0.376	-4.435	2.227	-2.148	-0.214	0.000	0.257	0.00000	36.57335	0.00000	0.00000	14.60992	0.00000
1.1725	7.374	2.473	0.110	0.001	0.000	0.204	-4.185	2.068	-0.397	-0.213	0.000	0.259	0.00000	-4.90705	0.00000	0.00000	20.05892	0.00000
1.1750	8.263	2.466	1.472	0.019	0.000	0.165	-3.043	2.920	-1.441	-0.214	0.000	0.253	0.00000	-6.73414	0.00000	0.00000	9.24464	0.00000
1.1775	7.152	0.921	0.427	-0.062	0.000	0.296	-3.252	3.432	-2.673	-0.215	0.000	0.244	0.00000	-11.46554	0.00000	0.00000	6.10752	0.00000
1.1800	6.975	-0.451	0.924	-0.084	0.000	0.386	-3.420	2.910	-3.501	-0.216	0.000	0.249	0.00000	17.78960	0.00000	0.00000	5.63633	0.00000
1.1825	7.842	2.850	-0.097	0.084	0.000	0.314	-3.865	2.058	-2.370	-0.214	0.000	0.249	0.00000	-2.46820	0.00000	0.00000	11.63181	0.00000
1.1850	8.288	1.971	-0.277	-0.003	0.000	0.372	-4.264	0.341	-1.761	-0.211	0.000	0.257	0.00000	-3.26800	0.00000	0.00000	76.42642	0.00000
1.1875	7.449	0.923	-0.541	-0.038	0.000	0.344	-3.435	1.887	-1.534	-0.215	0.000	0.255	0.00000	-7.89999	0.00000	0.00000	13.83013	0.00000
1.1900	6.308	2.836	-0.850	0.068	0.000	0.315	-3.166	4.807	-2.401	-0.216	0.000	0.248	0.00000	-2.18127	0.00000	0.00000	5.80760	0.00000
1.1925	7.499	2.815	-0.243	0.099	0.000	0.223	-3.431	3.255	-2.408	-0.213	0.000	0.250	0.00000	-3.83603	0.00000	0.00000	7.38020	0.00000
1.1950	7.679	1.774	-0.155	-0.020	0.000	0.263	-3.910	2.059	-2.281	-0.212	0.000	0.252	0.00000	-6.21761	0.00000	0.00000	12.23659	0.00000
1.1975	7.102	1.615	-0.146	-0.014	0.000	0.298	-4.215	2.226	-2.458	-0.215	0.000	0.251	0.00000	-5.54070	0.00000	0.00000	12.29654	0.00000
1.2000	7.191	2.320	-0.100	0.008	0.000	0.324	-4.084	2.913	-2.499	-0.214	0.000	0.250	0.00000	-3.26774	0.00000	0.00000	9.61460	0.00000
1.2025	7.537	1.793	-0.366	0.003	0.000	0.312	-2.953	2.401	-1.883	-0.214	0.000	0.250	0.00000	-4.55722	0.00000	0.00000	8.58114	0.00000
1.2050	6.967	2.664	-0.717	0.063	0.000	0.350	-3.562	3.600	-2.408	-0.214	0.000	0.249	0.00000	-2.13847	0.00000	0.00000	7.26709	0.00000
1.2075	7.184	2.997	-1.342	0.098	0.000	0.275	-4.041	3.944	-2.364	-0.215	0.000	0.250	0.00000	-2.33464	0.00000	0.00000	8.19760	0.00000
1.2100	7.495	1.950	-1.078	0.006	0.000	0.296	-3.691	2.915	-2.366	-0.215	0.000	0.249	0.00000	-4.06339	0.00000	0.00000	8.82289	0.00000
1.2125	7.408	1.603	-0.857	-0.005	0.000	0.315	-3.780	2.745	-2.193	-0.214	0.000	0.250	0.00000	-4.84889	0.00000	0.00000	9.76226	0.00000
1.2150	7.366	0.218	-0.941	-0.083	0.000	0.354	-3.562	2.398	-2.279	-0.215	0.000	0.251	0.00000	-30.47916	0.00000	0.00000	9.78587	0.00000
1.2175	7.189	1.964	-0.852	-0.015	0.000	0.337	-3.908	3.427	-2.628	-0.216	0.000	0.250	0.00000	-3.31441	0.00000	0.00000	8.06961	0.00000
1.2200	7.234	3.006	-0.457	0.080	0.000	0.292	-3.690	3.770	-2.625	-0.215	0.000	0.251	0.00000	-2.57992	0.00000	0.00000	7.19712	0.00000
1.2225	7.057	1.618	-0.894	-0.024	0.000	0.368	-3.953	3.257	-2.542	-0.213	0.000	0.250	0.00000	-3.34627	0.00000	0.00000	8.50129	0.00000
1.2250	6.747	2.136	-1.293	-0.003	0.000	0.330	-3.996	3.602	-2.543	-0.214	0.000	0.247	0.00000	-2.71573	0.00000	0.00000	8.00572	0.00000
1.2275	6.880	1.960	-1.162	-0.003	0.000	0.343	-3.691	2.396	-2.630	-0.212	0.000	0.252	0.00000	-2.93909	0.00000	0.00000	9.16957	0.00000
1.2300	7.499	1.606	-0.813	-0.028	0.000	0.324	-3.825	3.093	-1.843	-0.216	0.000	0.247	0.00000	-4.78486	0.00000	0.00000	9.88857	0.00000
1.2325	7.408	1.438	-0.677	-0.025	0.000	0.323	-3.608	2.402	-1.888	-0.215	0.000	0.248	0.00000	-5.33704	0.00000	0.00000	10.76565	0.00000
1.2350	7.320	1.607	-0.590	0.002	0.000	0.308	-3.299	2.744	-2.276	-0.215	0.000	0.251	0.00000	-5.13752	0.00000	0.00000	8.27824	0.00000
1.2375	7.273	1.609	-0.854	0.002	0.000	0.315	-3.255	2.227	-2.232	-0.216	0.000	0.253	0.00000	-4.61715	0.00000	0.00000	9.48980	0.00000
1.2400	7.451	2.130	-0.768	0.016	0.000	0.290	-3.608	2.401	-1.886	-0.215	0.000	0.251	0.00000	-3.89193	0.00000	0.00000	10.97368	0.00000
1.2425	7.277	1.783	-0.811	-0.012	0.000	0.316	-3.475	2.059	-2.062	-0.213	0.000	0.250	0.00000	-4.22374	0.00000	0.00000	10.98314	0.00000
1.2450	6.878	2.654	-0.810	0.070	0.000	0.275	-3.952	3.942	-2.672	-0.215	0.000	0.247	0.00000	-2.90305	0.00000	0.00000	7.31883	0.00000
1.2475	7.099	2.831	-1.119	0.049	0.000	0.307	-3.734	2.741	-2.630	-0.213	0.000	0.250	0.00000	-2.31089	0.00000	0.00000	8.56613	0.00000
1.2500	7.231	1.779	-0.856	0.010	0.000	0.302	-3.387	2.572	-2.189	-0.215	0.000	0.252	0.00000	-4.41894	0.00000	0.00000	9.12254	0.00000
1.2525	7.272	1.606	-1.031	0.005	0.000	0.317	-3.781	2.399	-2.105	-0.215	0.000	0.251	0.00000	-4.41884	0.00000	0.00000	11.00215	0.00000
1.2550	7.319	1.960	-0.809	0.005	0.000	0.313	-3.781	3.090	-1.972	-0.215	0.000	0.250	0.00000	-3.76772	0.00000	0.00000	9.64214	0.00000
1.2575	7.273	1.958	-0.809	0.027	0.000	0.308	-3.519	2.743	-2.104	-0.215	0.000	0.250	0.00000	-3.80108	0.00000	0.00000	9.20862	0.00000
1.2600	7.322	1.266	-0.632	-0.043	0.000	0.335	-3.737	2.058	-2.107	-0.213	0.000	0.250	0.00000	-5.84569	0.00000	0.00000	11.89418	0.00000
1.2625	7.227	2.648	-0.857	0.091	0.000	0.246	-3.738	2.915	-2.061	-0.215	0.000	0.249	0.00000	-3.27957	0.00000	0.00000	9.49675	0.00000
1.2650	7.056	2.484	-0.808	0.042	0.000	0.324	-3.736	2.912	-2.453	-0.214	0.000	0.251	0.00000	-2.66393	0.00000	0.00000	8.73174	0.00000
1.2675	7.013	2.832	-0.898	0.034	0.000	0.292	-3.955	2.740	-2.369	-0.214	0.000	0.250	0.00000	-2.56117	0.00000	0.00000	9.82770	0.00000
1.2700	7.140	2.131	-0.854	0.032	0.000	0.284	-3.783	1.540	-1.977	-0.213	0.000	0.252	0.00000	-3.71950	0.00000	0.00000	15.68780	0.00000
1.2725	7.054	1.784	-0.898	-0.006	0.000	0.292	-3.517	2.398	-2.367	-0.214	0.000	0.251	0.00000	-4.40711	0.00000	0.00000	9.32469	0.00000
1.2750	7.145	1.261	-1.031	-0.051	0.000	0.319	-3.781	2.228	-2.063	-0.215	0.000	0.250	0.00000	-5.81628	0.00000	0.00000	11.55057	0.00000
1.2775	7.319	1.957	-0.855	0.009	0.000	0.303	-3.649	2.915	-2.147	-0.216	0.000	0.250	0.00000	-3.94243	0.00000	0.00000	9.22769	0.00000
1.2800	7.190	1.088	-0.721	-0.047	0.000	0.324	-3.519	2.400	-2.104	-0.214	0.000	0.251	0.00000	-7.05844	0.00000	0.00000	10.08531	0.00000
1.2825	7.319	1.956	-0.635	0.016	0.000	0.286	-3.520	2.573	-1.928	-0.215	0.000	0.251	0.00000	-4.40222	0.00000	0.00000	10.12764	0.00000
1.2850	7.011	3.182	-0.765	0.083	0.000	0.269	-3.650	3.597	-2.408	-0.214	0.000	0.250	0.00000	-2.34390	0.00000	0.00000	7.52435	0.00000
1.2875	6.966	3.006	-0.721	0.091	0.000	0.270	-3.473	2.739	-2.540	-0.214	0.000	0.251	0.00000	-2.54523	0.00000	0.00000	8.08510	0.00000
1.2900	7.321	1.786	-0.810	-0.018	0.000	0.321	-3.650	2.228	-2.104	-0.214	0.000	0.252	0.00000	-4.10638	0.00000	0.00000	11.17597	0.00000
1.2925	6.967	3.355	-0.898	0.116	0.000	0.281	-3.823	3.426	-2.453	-0.216	0.000	0.249	0.00000	-2.05856	0.00000	0.00000	8.10945	0.00000
1.2950	6.926	2.485	-0.942	0.006	0.000	0.311	-3.822	3.600	-2.497	-0.216	0.000	0.247	0.00000	-2.76247	0.00000	0.00000	7.75581	0.00000
1.2975	7.099	1.785	-0.898	-0.010	0.000	0.311	-3.518	2.916	-2.147	-0.214	0.000	0.250	0.00000	-4.11892	0.00000	0.00000	8.78655	0.00000
1.3000	6.922	3.356	-0.765	0.126	0.000	0.269	-3.648	4.286	-2.451	-0.216	0.000	0.247	0.00000	-2.14709	0.00000	0.00000	6.75816	0.00000
